<svg xmlns="http://www.w3.org/2000/svg" viewBox="0 0 64 64" width="64" height="64">
  <rect width="64" height="64" rx="16" fill="#e0a83a" />
  <g fill="#16213e">
    <rect x="30.5" y="14" width="3" height="36" rx="1.5" />
    <circle cx="32" cy="13" r="3.4" />
    <path d="M18 24h28l-1.5 4H19.5z" opacity="0" />
    <path d="M20 22l-6 12c0 3.3 2.7 6 6 6s6-2.7 6-6l-6-12z" />
    <path d="M44 22l-6 12c0 3.3 2.7 6 6 6s6-2.7 6-6l-6-12z" />
    <rect x="14" y="50" width="36" height="4" rx="2" />
    <rect x="20" y="20" width="24" height="3" rx="1.5" />
  </g>
</svg>
